<svg width="120" height="150" viewBox="0 0 120 150" fill="none" xmlns="http://www.w3.org/2000/svg">
<g clip-path="url(#clip0_5289_831)">
<path d="M116.487 41.0555H97.3225C93.3059 40.8616 89.5292 39.0864 86.8168 36.1177C84.1044 33.1491 82.6765 29.2284 82.8449 25.2108V3.83502C82.8448 3.12248 83.061 2.42732 83.465 1.84039C83.8691 1.25347 84.4418 0.803113 85.1074 0.548888C85.7731 0.294664 86.5003 0.247654 87.1927 0.415832C87.8851 0.584009 88.51 0.95881 88.9849 1.49005L119.11 35.2022C119.563 35.7084 119.859 36.3354 119.964 37.0064C120.068 37.6774 119.976 38.3641 119.699 38.9839C119.422 39.6038 118.971 40.1308 118.401 40.5001C117.831 40.8694 117.167 41.0654 116.487 41.0652V41.0555ZM89.8799 13.055V25.223C89.7166 27.3736 90.4051 29.5019 91.7969 31.1495C93.1887 32.7971 95.1723 33.8319 97.3199 34.0303H108.622L89.8799 13.055Z" fill="#007934"/>
<path d="M105.178 150H14.7476C10.8375 149.994 7.08921 148.439 4.32434 145.674C1.55947 142.909 0.00350957 139.16 -0.00244141 135.25V14.7656C0.00350957 10.8555 1.55947 7.10691 4.32434 4.34204C7.08921 1.57717 10.8375 0.0205994 14.7476 0.0146484H85.4251C86.358 0.0146484 87.2527 0.385263 87.9124 1.04492C88.572 1.70458 88.9426 2.59982 88.9426 3.53271C88.9426 4.46561 88.572 5.35963 87.9124 6.01929C87.2527 6.67895 86.358 7.04956 85.4251 7.04956H14.7476C12.701 7.05221 10.7388 7.86676 9.29161 9.31396C7.8444 10.7612 7.03023 12.7238 7.02759 14.7705V135.255C7.02957 137.302 7.84357 139.264 9.29092 140.712C10.7383 142.159 12.7008 142.973 14.7476 142.975H105.168C107.214 142.973 109.177 142.159 110.624 140.712C112.072 139.264 112.886 137.302 112.888 135.255V37.5574C112.888 36.6241 113.258 35.7295 113.918 35.0696C114.578 34.4097 115.473 34.0393 116.406 34.0393C117.34 34.0393 118.235 34.4097 118.895 35.0696C119.554 35.7295 119.925 36.6241 119.925 37.5574V135.255C119.918 139.164 118.362 142.91 115.597 145.674C112.833 148.438 109.086 149.993 105.178 150Z" fill="#007934"/>
<path d="M64.3076 90.152H55.7026C54.5693 90.1474 53.4479 89.9198 52.4027 89.4818C51.3574 89.0439 50.4086 88.4041 49.6105 87.5995C48.8123 86.7949 48.1805 85.8407 47.7511 84.7919C47.3217 83.7431 47.103 82.6195 47.1076 81.4862C47.1266 80.929 47.3613 80.4015 47.7622 80.014C48.1631 79.6266 48.6988 79.4098 49.2563 79.4098C49.8138 79.4098 50.3495 79.6266 50.7504 80.014C51.1513 80.4015 51.386 80.929 51.405 81.4862C51.4004 82.6308 51.8505 83.7312 52.6563 84.5441C53.4622 85.357 54.558 85.8169 55.7026 85.8221H64.3076C65.4389 85.795 66.5148 85.3258 67.3054 84.516C68.0959 83.7062 68.5385 82.6191 68.5385 81.4874C68.5385 80.3557 68.0959 79.2699 67.3054 78.4601C66.5148 77.6503 65.4389 77.1811 64.3076 77.1539H55.7026C53.4045 77.1539 51.2005 76.2411 49.5755 74.6161C47.9505 72.9911 47.0376 70.7875 47.0376 68.4894C47.0376 66.1913 47.9505 63.9877 49.5755 62.3627C51.2005 60.7377 53.4045 59.8236 55.7026 59.8236H64.3076C65.4409 59.8282 66.5622 60.0571 67.6075 60.495C68.6528 60.9329 69.6015 61.5715 70.3996 62.3761C71.1978 63.1807 71.8296 64.1349 72.2591 65.1837C72.6885 66.2325 72.9071 67.3561 72.9025 68.4894C72.9025 69.0593 72.6762 69.6062 72.2732 70.0092C71.8702 70.4121 71.3237 70.6378 70.7538 70.6378C70.1839 70.6378 69.6374 70.4121 69.2344 70.0092C68.8314 69.6062 68.6051 69.0593 68.6051 68.4894C68.6097 67.3447 68.1596 66.2444 67.3538 65.4315C66.5479 64.6186 65.4522 64.16 64.3076 64.1547H55.7026C54.579 64.1928 53.5142 64.6659 52.7329 65.4742C51.9515 66.2826 51.5148 67.3627 51.5148 68.4869C51.5148 69.6112 51.9515 70.6913 52.7329 71.4996C53.5142 72.308 54.579 72.781 55.7026 72.8192H64.3076C66.6057 72.8192 68.8097 73.7321 70.4347 75.3571C72.0597 76.9821 72.9726 79.1857 72.9726 81.4838C72.9726 83.7819 72.0597 85.9867 70.4347 87.6117C68.8097 89.2367 66.6057 90.152 64.3076 90.152Z" fill="#007934"/>
<path d="M64.3077 91.0286H55.7028C53.1807 91.0167 50.7664 90.0048 48.9896 88.2148C47.2128 86.4249 46.2186 84.0035 46.2252 81.4814C46.2479 80.6932 46.5769 79.9448 47.1424 79.3953C47.708 78.8457 48.4655 78.5383 49.254 78.5383C50.0426 78.5383 50.8 78.8457 51.3655 79.3953C51.9311 79.9448 52.2601 80.6932 52.2827 81.4814C52.2794 82.3934 52.6378 83.2698 53.2794 83.918C53.9209 84.5661 54.7934 84.9337 55.7053 84.9397H64.3077C65.2077 84.913 66.0617 84.5356 66.6879 83.8887C67.3141 83.2418 67.663 82.3757 67.6604 81.4753C67.6578 80.575 67.3038 79.7114 66.6739 79.0681C66.044 78.4249 65.1878 78.0532 64.2878 78.0317H55.7003C53.1688 78.0317 50.7409 77.0264 48.9509 75.2363C47.1609 73.4463 46.1553 71.0186 46.1553 68.4871C46.1553 65.9556 47.1609 63.5278 48.9509 61.7378C50.7409 59.9478 53.1688 58.9412 55.7003 58.9412H64.3077C66.8294 58.9537 69.243 59.9662 71.0193 61.7561C72.7956 63.546 73.7894 65.9679 73.7828 68.4895C73.7828 69.2928 73.4637 70.0626 72.8957 70.6306C72.3277 71.1986 71.5573 71.5181 70.754 71.5181C69.9508 71.5181 69.1804 71.1986 68.6124 70.6306C68.0444 70.0626 67.7253 69.2928 67.7253 68.4895C67.7292 67.5774 67.3711 66.7 66.7294 66.0518C66.0877 65.4035 65.2149 65.0365 64.3028 65.0312H55.7003C54.8003 65.0579 53.9464 65.4354 53.3202 66.0823C52.694 66.7292 52.3451 67.5953 52.3477 68.4956C52.3503 69.3959 52.7042 70.2596 53.3342 70.9028C53.9641 71.5461 54.8202 71.9177 55.7202 71.9392H64.3077C66.8392 71.9392 69.267 72.9446 71.0571 74.7346C72.8471 76.5247 73.8528 78.9524 73.8528 81.4839C73.8528 84.0154 72.8471 86.4431 71.0571 88.2332C69.267 90.0232 66.8392 91.0286 64.3077 91.0286ZM49.2552 80.2144C48.9186 80.215 48.596 80.3486 48.358 80.5867C48.1199 80.8247 47.9859 81.1473 47.9853 81.4839C47.9807 82.5021 48.1767 83.5115 48.5623 84.4539C48.9478 85.3962 49.5153 86.2529 50.2322 86.9758C50.9491 87.6988 51.8015 88.2743 52.7406 88.6677C53.6797 89.0611 54.6871 89.2656 55.7053 89.2695H64.3077C66.3728 89.2695 68.3533 88.4482 69.8135 86.988C71.2737 85.5278 72.094 83.5477 72.094 81.4827C72.094 79.4176 71.2737 77.4375 69.8135 75.9773C68.3533 74.5171 66.3728 73.697 64.3077 73.697H55.7028C54.3203 73.6997 52.9934 73.1529 52.014 72.1772C51.0346 71.2016 50.483 69.8768 50.4803 68.4944C50.4776 67.1119 51.0243 65.7848 51.9999 64.8054C52.9756 63.826 54.3003 63.2749 55.6828 63.2722H64.3077C65.6858 63.2788 67.005 63.8309 67.9756 64.8091C68.9463 65.7873 69.4893 67.1114 69.4853 68.4895C69.4998 68.8163 69.6398 69.124 69.8761 69.3501C70.1125 69.5762 70.427 69.7029 70.754 69.7029C71.0811 69.7029 71.3955 69.5762 71.6319 69.3501C71.8682 69.124 72.0082 68.8163 72.0227 68.4895C72.0273 67.4713 71.8313 66.4619 71.4458 65.5195C71.0603 64.5772 70.4928 63.7205 69.7759 62.9976C69.0589 62.2746 68.2066 61.6991 67.2675 61.3057C66.3284 60.9122 65.3209 60.7078 64.3028 60.7039H55.7003C53.6352 60.7039 51.6548 61.5239 50.1946 62.9841C48.7344 64.4443 47.914 66.4257 47.914 68.4907C47.914 70.5558 48.7344 72.5359 50.1946 73.9961C51.6548 75.4563 53.6352 76.2764 55.7003 76.2764H64.3077C65.6623 76.316 66.9484 76.8821 67.8933 77.8535C68.8383 78.8249 69.368 80.125 69.3703 81.4802C69.3726 82.8354 68.8472 84.1385 67.9055 85.113C66.9638 86.0876 65.6798 86.657 64.3253 86.7012H55.7028C54.3249 86.6939 53.0062 86.1411 52.0356 85.1631C51.0651 84.185 50.5219 82.8618 50.5252 81.4839C50.5239 81.1477 50.3897 80.8254 50.1517 80.5879C49.9137 80.3504 49.5914 80.215 49.2552 80.2144Z" fill="#007934"/>
<path d="M60.0053 61.9969C59.722 61.996 59.4416 61.939 59.1802 61.8297C58.9188 61.7204 58.6815 61.5608 58.4819 61.3597C58.2822 61.1587 58.1241 60.92 58.0166 60.6578C57.9091 60.3957 57.8543 60.1147 57.8553 59.8314V55.4967C57.8454 55.2084 57.8938 54.9213 57.9973 54.652C58.1009 54.3827 58.2576 54.1368 58.4581 53.9293C58.6586 53.7219 58.8987 53.5574 59.1643 53.4447C59.4299 53.332 59.7155 53.2738 60.004 53.2738C60.2925 53.2738 60.5781 53.332 60.8437 53.4447C61.1093 53.5574 61.3495 53.7219 61.55 53.9293C61.7505 54.1368 61.9072 54.3827 62.0108 54.652C62.1143 54.9213 62.1626 55.2084 62.1527 55.4967V59.829C62.1544 60.1124 62.1001 60.393 61.9931 60.6554C61.886 60.9178 61.7281 61.1572 61.5287 61.3585C61.3292 61.5599 61.092 61.7202 60.8306 61.8297C60.5692 61.9392 60.2887 61.996 60.0053 61.9969Z" fill="#007934"/>
<path d="M60.0025 62.8662C59.1974 62.8629 58.4265 62.5404 57.8593 61.969C57.2921 61.3975 56.9749 60.6245 56.9776 59.8193V55.4968C56.9782 54.6939 57.2973 53.9237 57.8649 53.3557C58.4324 52.7877 59.2021 52.4684 60.0051 52.467C60.808 52.467 61.578 52.7855 62.1458 53.3533C62.7136 53.921 63.0325 54.6914 63.0325 55.4944V59.8291C63.0312 60.6319 62.7124 61.4016 62.1457 61.9702C61.579 62.5388 60.8104 62.8598 60.0076 62.8638L60.0025 62.8662ZM60.0025 54.2273C59.6661 54.228 59.3438 54.3615 59.1062 54.5996C58.8685 54.8377 58.7351 55.1604 58.7351 55.4968V59.8193C58.7275 59.9907 58.7546 60.1617 58.8149 60.3223C58.8753 60.4828 58.9675 60.6292 59.0861 60.7532C59.2047 60.8771 59.3471 60.9763 59.5048 61.0437C59.6625 61.1111 59.8323 61.145 60.0038 61.145C60.1754 61.145 60.3451 61.1111 60.5028 61.0437C60.6605 60.9763 60.8029 60.8771 60.9215 60.7532C61.0401 60.6292 61.1323 60.4828 61.1926 60.3223C61.253 60.1617 61.2801 59.9907 61.2725 59.8193V55.4871C61.2729 55.3204 61.2403 55.1553 61.1768 55.0012C61.1132 54.8472 61.0199 54.7066 60.9022 54.5886C60.7845 54.4707 60.6446 54.3778 60.4907 54.314C60.3367 54.2501 60.1717 54.2163 60.0051 54.2163L60.0025 54.2273Z" fill="#007934"/>
<path d="M60.0053 96.6517C59.4333 96.6491 58.8857 96.4192 58.4826 96.0133C58.0796 95.6074 57.8539 95.0582 57.8553 94.4862V87.9872C57.8454 87.6988 57.8938 87.4105 57.9973 87.1412C58.1009 86.8719 58.2576 86.6273 58.4581 86.4198C58.6586 86.2123 58.8987 86.0466 59.1643 85.934C59.4299 85.8213 59.7155 85.7631 60.004 85.7631C60.2925 85.7631 60.5781 85.8213 60.8437 85.934C61.1093 86.0466 61.3495 86.2123 61.55 86.4198C61.7505 86.6273 61.9072 86.8719 62.0108 87.1412C62.1143 87.4105 62.1626 87.6988 62.1527 87.9872V94.4862C62.1547 95.058 61.9297 95.6074 61.5271 96.0133C61.1244 96.4193 60.5771 96.6491 60.0053 96.6517Z" fill="#007934"/>
<path d="M60.0025 97.532C59.1976 97.528 58.427 97.2048 57.86 96.6335C57.2929 96.0622 56.9756 95.2889 56.9775 94.4839V87.9836C56.9782 87.1807 57.2973 86.4118 57.8648 85.8438C58.4324 85.2757 59.2021 84.9552 60.005 84.9539C60.808 84.9539 61.578 85.2735 62.1458 85.8413C62.7135 86.4091 63.0325 87.1783 63.0325 87.9812V94.4814C63.0312 95.2845 62.7125 96.0548 62.1459 96.6238C61.5792 97.1928 60.8106 97.5152 60.0076 97.5198L60.0025 97.532ZM60.0025 86.7239C59.6663 86.7252 59.3443 86.8595 59.1068 87.0974C58.8693 87.3354 58.7357 87.6584 58.7351 87.9946V94.4937C58.7274 94.665 58.7546 94.8372 58.8149 94.9978C58.8753 95.1584 58.9675 95.3048 59.0861 95.4287C59.2046 95.5527 59.3471 95.6506 59.5048 95.718C59.6625 95.7854 59.8323 95.8206 60.0038 95.8206C60.1753 95.8206 60.3451 95.7854 60.5028 95.718C60.6605 95.6506 60.8029 95.5527 60.9215 95.4287C61.0401 95.3048 61.1323 95.1584 61.1926 94.9978C61.253 94.8372 61.2801 94.665 61.2725 94.4937V87.9946C61.2728 87.828 61.2403 87.6629 61.1768 87.5088C61.1132 87.3547 61.0199 87.2142 60.9022 87.0962C60.7845 86.9782 60.6446 86.8842 60.4907 86.8203C60.3367 86.7565 60.1717 86.7239 60.005 86.7239H60.0025Z" fill="#007934"/>
<path d="M60.0053 114.289C52.2349 114.289 44.6391 111.985 38.1783 107.668C31.7175 103.351 26.6819 97.2149 23.7083 90.0361C20.7348 82.8572 19.9568 74.9581 21.4727 67.3371C22.9886 59.7161 26.7304 52.7156 32.2248 47.2211C37.7193 41.7267 44.7197 37.9851 52.3407 36.4692C59.9617 34.9533 67.8611 35.7307 75.04 38.7043C82.2188 41.6779 88.3547 46.7137 92.6717 53.1745C96.9886 59.6353 99.2928 67.2316 99.2928 75.0019C99.2802 85.4177 95.1369 95.4029 87.7718 102.768C80.4067 110.133 70.4211 114.276 60.0053 114.289ZM60.0053 42.7497C53.6268 42.7497 47.3916 44.6406 42.0882 48.1843C36.7847 51.7279 32.6511 56.7652 30.2102 62.6581C27.7693 68.5511 27.1306 75.0351 28.3749 81.291C29.6193 87.5468 32.6908 93.2932 37.2011 97.8034C41.7113 102.314 47.4577 105.385 53.7136 106.629C59.9695 107.873 66.4539 107.235 72.3468 104.794C78.2397 102.353 83.2765 98.2204 86.8201 92.9169C90.3638 87.6134 92.2552 81.3779 92.2552 74.9994C92.2453 66.4493 88.8444 58.2524 82.7985 52.2065C76.7526 46.1606 68.5554 42.7596 60.0053 42.7497Z" fill="#007934"/>
</g>
<defs>
<clipPath id="clip0_5289_831">
<rect width="120.005" height="150" fill="white"/>
</clipPath>
</defs>
</svg>
